<svg width="191" height="148" xmlns="http://www.w3.org/2000/svg" xmlns:xlink="http://www.w3.org/1999/xlink"><defs><path id="a" d="M39.742.41H.152V.09h39.59z"/><path id="b" d="M0 147.86h190.782V0H0z"/></defs><g fill="none" fill-rule="evenodd"><path d="M190.509 96.335c-17.704-11.973-35.408 11.974-53.112 0V74.162c17.704 11.974 35.408-11.974 53.112 0v22.173z" fill="#09A0DB"/><path d="M190.662 73.936s-5.43-3.227-7.04-2.952a18.957 18.957 0 0 0-.455-.006c-6.573 0-12.404 3.012-15.502 8.29l-.001-.001-.012.023a17.764 17.764 0 0 0-.98 1.932c-8.332 15.93-16.386 18.63-16.386 18.63l12.342-3.113c7.94-2.214 8.409-4.297 18.17-3.748 2.568.144 4.624 1.29 7.06 1.651.814.12 2.027 1.652 2.799 1.749l.005-22.455z" fill="#1280A1"/><path d="M82.996 88.11s1.073 14.528 3.623 20.283l-9.352 15.428h.61l-9.352-15.428c2.55-5.755 3.623-20.284 3.623-20.284" fill="#FFCC80"/><path d="M77.877 124.185h-.61a.364.364 0 0 1-.311-.552l.19-.314-8.933-14.738a.363.363 0 0 1-.021-.335c2.495-5.631 3.582-20.02 3.593-20.163a.357.357 0 0 1 .39-.336c.2.014.351.189.336.389-.043.59-1.086 14.378-3.577 20.23l8.638 14.25 8.639-14.25c-2.492-5.852-3.535-19.64-3.578-20.23a.363.363 0 0 1 .336-.39.357.357 0 0 1 .39.337c.011.144 1.098 14.532 3.594 20.163a.365.365 0 0 1-.022.335l-8.933 14.738.19.314a.363.363 0 0 1-.311.552" fill="#182642"/><path fill="#FF7200" d="M77.546 93.002l-.26 20.795.597.03.22-20.609zM82.246 88.342s.472 15.433 3.583 23.142l-6.922 2.802-.547-26.07 3.886.126zM72.835 88.342s-.107 15.433-3.219 23.142l6.923 2.802.546-26.07-4.25.126z"/><path d="M73.868 88.342s-.546 16.117-2.49 23.142l3.644 2.802.546-26.07-1.7.126zM81.427 88.426s.547 16.117 2.49 23.142l-3.644 6.438-.546-29.706 1.7.126z" fill="#FF9C4C"/><path d="M63.24 78.536L52.441 89.549s-1.64 1-1.73-.818l-1.55-18.083s-.432-2.84 2.551-6.633l6.24-7.558" fill="#FFD732"/><path d="M51.551 90.187c-.183 0-.371-.035-.547-.128-.403-.213-.623-.653-.657-1.31L48.8 70.68c-.016-.098-.418-3.015 2.627-6.888l6.244-7.565a.365.365 0 0 1 .562.462l-6.238 7.558c-2.848 3.621-2.476 6.32-2.472 6.348L51.074 88.7c.014.276.072.61.27.716.231.122.663-.042.872-.157L62.98 78.282a.366.366 0 0 1 .515-.006c.144.14.147.37.006.514L52.702 89.803a.351.351 0 0 1-.07.056c-.07.043-.558.328-1.08.328" fill="#182642"/><path d="M52.648 88.762l-1.553-18.114s-.433-2.84 2.55-6.633l4.97-6.461-.263-1.097-6.239 7.558c-2.983 3.794-2.55 6.633-2.55 6.633l1.548 18.083s.177 1.605 1.537.03" fill="#FFF59D"/><path d="M92.153 78.53l10.803 11.019s1.64 1 1.73-.818l1.55-18.083s.432-2.84-2.551-6.633l-6.077-7.362" fill="#FFD732"/><path d="M103.847 90.187c-.523 0-1.01-.285-1.08-.328a.351.351 0 0 1-.071-.056l-10.804-11.02a.364.364 0 0 1 .521-.508l10.77 10.984c.207.115.64.28.872.157.198-.105.255-.44.268-.703l1.55-18.096c.006-.049.36-2.773-2.474-6.378l-6.072-7.355a.362.362 0 0 1 .05-.511.365.365 0 0 1 .512.049l6.077 7.362c3.05 3.88 2.648 6.797 2.63 6.92l-1.546 18.058c-.032.644-.253 1.084-.656 1.297a1.162 1.162 0 0 1-.547.128M53.126 79.946a.277.277 0 0 1-.275-.252l-.843-9.847c-.012-.075-.318-2.291 1.995-5.233l3.977-4.818a.276.276 0 0 1 .427.351l-3.973 4.813c-2.163 2.751-1.88 4.802-1.877 4.822l.845 9.865a.277.277 0 0 1-.276.3M53.243 81.531a.276.276 0 0 1-.276-.276v-.221a.276.276 0 0 1 .553 0v.221a.276.276 0 0 1-.277.276M54.097 84.663a.878.878 0 0 1-.415-.098c-.306-.16-.474-.495-.5-.994l-.12-1.417a.277.277 0 0 1 .551-.047l.122 1.427c.01.209.054.463.204.543.176.093.505-.031.664-.119l7.597-7.75a.278.278 0 0 1 .392-.004c.109.107.111.282.004.39l-7.624 7.777a.275.275 0 0 1-.054.043c-.053.033-.424.249-.82.249M137.428 137.193a.273.273 0 0 1-.273-.273V74.182a.273.273 0 0 1 .546 0v62.738c0 .15-.122.273-.273.273M148.18 87.294c.04-.057.048-.05.088-.107l.078-.112c.04-.057.048-.05.088-.107.04-.056.026-.067.065-.123.04-.057.044-.051.083-.108.04-.056.03-.067.07-.118.04-.057.04-.062.079-.118.04-.056.052-.048.092-.104.039-.056.03-.062.07-.119.048-.069.078-.205-.127-.227-.053-.006-.118-.009-.175-.015-.096-.011-.087-.006-.175-.016-.074-.009-.135-.03-.175-.074-.039-.044-.048-.107-.048-.18v-.162a.18.18 0 0 1 .066-.149c.04-.033.092-.07.157-.063.079.01.079.022.158.032.078.01.078.018.157.027.078.009.078.007.157.016.074.007.074-.01.153-.002l.157.014.158.014.153.012c.078.005.078.01.157.016.079.005.079.001.157.006.079.004.079.022.157.027.08.004.08 0 .158.004.074.004.074-.005.153 0 .07.002.13.026.174.067.044.046.053.107.053.172 0 .08.013.08.013.162 0 .074-.022.135-.061.172-.04.042-.1.043-.175.04-.057-.003-.105.013-.148.01-.057.002-.101.014-.145.024a.366.366 0 0 0-.13.049c-.036.023-.084.038-.123.079-.03.028-.07.06-.105.102-.044.061-.04.066-.079.129-.043.062-.026.072-.07.134-.039.063-.039.067-.078.13l-.088.123c-.039.061-.048.057-.092.118-.039.062-.052.052-.095.114l-.088.122c-.043.061-.04.063-.083.123-.044.062-.035.066-.079.127-.043.061-.034.067-.078.127s-.053.057-.096.117c-.04.061-.044.056-.088.116-.043.06-.022.076-.065.137-.044.06-.061.05-.1.11-.044.06-.036.066-.075.126-.044.055-.066.105-.105.126-.04.021-.096-.003-.17-.013-.08-.01-.08.01-.153 0-.074-.01-.074-.019-.153-.03-.074-.012-.074-.021-.153-.032-.07-.012-.105-.025-.144-.062a.751.751 0 0 1-.11-.136c-.043-.065-.06-.057-.1-.122-.044-.067-.03-.079-.07-.142-.043-.069-.043-.07-.087-.134-.044-.068-.061-.06-.105-.123-.044-.069-.044-.07-.083-.137-.044-.066-.04-.069-.083-.138-.04-.065-.04-.069-.079-.137-.044-.066-.044-.066-.087-.136-.044-.07-.035-.067-.079-.137-.043-.07-.048-.067-.088-.136-.043-.07-.039-.07-.082-.14-.04-.069-.131-.08-.175-.024-.044.056-.053.044-.096.101-.044.056-.03.067-.075.123-.043.055-.039.056-.083.111-.043.056-.039.056-.082.112-.044.055-.062.037-.106.092-.043.055-.022.073-.065.128-.044.055-.061.037-.105.092-.044.054-.03.062-.074.117l-.088.108c-.043.054-.03.066-.078.119a.304.304 0 0 1-.118.09c-.04.016-.092.02-.17-.002-.075-.022-.075-.051-.15-.072-.078-.023-.078-.002-.152-.023-.079-.022-.079-.04-.153-.063-.07-.021-.122-.023-.162-.066a.88.88 0 0 1-.113-.162c-.044-.075-.04-.073-.083-.148-.044-.076-.03-.08-.075-.155-.043-.076-.052-.07-.096-.145-.044-.074-.04-.078-.083-.154-.044-.075-.03-.079-.074-.155-.04-.075-.044-.071-.088-.148-.043-.075-.047-.078-.091-.154-.04-.074-.031-.08-.07-.155l-.087-.152c-.04-.075-.057-.07-.101-.145-.044-.081-.026-.084-.066-.16l-.087-.154c-.044-.083-.06-.07-.105-.152-.044-.078-.035-.075-.078-.152-.044-.082-.044-.078-.088-.156-.043-.077-.03-.086-.074-.164-.026-.045-.07-.093-.1-.14-.036-.048-.057-.095-.101-.144-.04-.037-.083-.068-.136-.107a.955.955 0 0 0-.14-.084c-.043-.026-.087-.055-.14-.077a.452.452 0 0 1-.187-.129.36.36 0 0 1-.053-.206c0-.082-.004-.085-.004-.163 0-.065.04-.096.083-.12.044-.02.092-.038.162-.009.074.031.074.023.148.054.074.03.074.066.153.098.074.03.074.017.149.047l.148.058c.08.03.08.026.153.055.074.028.074.037.15.065.073.028.073.023.152.052.074.027.074.036.148.062.075.026.075.013.15.04.078.027.078.018.152.044.074.024.074.02.148.045.08.026.08.048.153.072.075.024.075.01.149.035.074.022.074.032.153.056l.148.045c.07.02.123.063.162.113a.257.257 0 0 1 .061.175c0 .08.022.085.022.167a.179.179 0 0 1-.074.149.18.18 0 0 1-.166.025c-.07-.021-.061-.022-.14-.046-.044-.014-.092-.033-.14-.049-.052-.016-.105-.041-.135-.051-.066-.022-.127-.02-.153.015-.018.03-.013.084.035.169.004.01.026.065.074.15.026.044.07.088.1.146.027.043.044.096.075.15.026.047.061.095.087.145l.087.149c.027.047.053.099.08.146.03.048.06.096.087.143l.087.148c.03.053.074.097.1.138.031.057.062.105.088.147.052.09.105.094.148.046.04-.05.036-.056.075-.106.039-.05.048-.04.087-.09.04-.05.03-.062.07-.108.04-.05.052-.039.092-.09.04-.05.048-.044.087-.095.04-.051.03-.058.07-.109.04-.051.026-.067.066-.12.04-.05.06-.027.1-.079.04-.051.013-.075.052-.127.04-.051.062-.033.101-.085.048-.062.035-.11.009-.15a.246.246 0 0 0-.149-.101l-.148-.037c-.03-.008-.07.01-.149-.01a.364.364 0 0 1-.174-.12.302.302 0 0 1-.053-.189c0-.082-.005-.082-.005-.162 0-.065.027-.11.07-.143.04-.03.097-.036.162-.02l.153.04.153.037c.074.017.074.023.153.04.074.018.074.023.148.039.08.018.08.004.153.02.08.018.08.005.153.02.08.016.08.03.153.045.074.015.074.02.153.035.074.015.074.01.153.025.075.014.075.022.153.037.075.014.075.004.149.018.079.013.079.01.153.022.078.013.078.03.153.042.07.012.126.033.166.078a.245.245 0 0 1 .065.172c0 .078-.004.077-.004.16 0 .074-.009.135-.048.168a.217.217 0 0 1-.175.042c-.083-.013-.079-.008-.166-.023-.057-.01-.118-.042-.162-.05-.144-.012-.148.118-.1.196l.083.137.087.133c.027.043.048.09.074.139.03.045.04.098.066.142.03.047.079.082.105.126.03.044.048.094.074.138.03.048.066.09.092.132.03.049.057.091.087.135l.083.135c.03.048.07.088.092.126.053.083.105.075.144.02.04-.055.044-.05.083-.106M155.945 87.642c0 .079.01.078.01.16 0 .078-.018.08-.018.16 0 .082-.005.081-.005.16 0 .066-.017.12-.061.166a.238.238 0 0 1-.157.071c-.08.01-.08.027-.153.035-.074.008-.074.005-.153.014-.074.008-.074 0-.153.008l-.149.016c-.078.008-.078.012-.152.02-.075.007-.075.033-.153.041-.075.007-.075-.01-.153-.002-.075.007-.075.024-.15.03-.078.007-.078.004-.152.01-.074.007-.074.002-.153.008-.074.007-.074-.012-.148-.006-.08.006-.08.02-.153.025l-.153.01c-.074.006-.074-.008-.153-.002-.074.005-.074.018-.149.022-.078.004-.078.009-.153.014-.074.004-.074-.023-.153-.019-.074.005-.074.03-.148.034-.079.003-.079-.005-.153-.002s-.074.006-.153.01l-.149.005-.152.004c-.075.002-.075-.005-.153-.004-.075 0-.075.01-.149.011-.079 0-.079 0-.153.002s-.074-.008-.153-.007c-.074 0-.074.019-.153.019-.074 0-.074-.008-.148-.01-.07 0-.118-.039-.158-.079-.043-.038-.096-.088-.096-.153 0-.079.035-.079.035-.157s.013-.126.052-.17c.04-.038.092-.08.167-.081.056-.005.109.008.157.004.061-.004.114.009.162 0 .06-.01.109-.036.148-.054.066-.023.096-.05.114-.094a.319.319 0 0 0 .035-.153c0-.074.008-.074.008-.148 0-.075-.013-.074-.013-.148 0-.078-.013-.079-.013-.153s-.009-.074-.009-.147c0-.074.018-.075.018-.149 0-.079.009-.08.009-.153s-.013-.073-.013-.148c0-.074.017-.074.017-.148 0-.062-.026-.109-.048-.152-.018-.04-.04-.069-.105-.094-.04-.013-.087-.035-.153-.042-.043-.008-.1.01-.157.005-.048-.005-.1-.036-.162-.035-.074 0-.127-.014-.166-.054-.04-.04-.057-.093-.057-.166 0-.082.005-.083.005-.16 0-.066.004-.132.048-.17.04-.04.105-.04.175-.04.074.001.074.006.148.006s.074-.01.153-.01c.074 0 .074-.005.149-.005.074-.001.074-.024.148-.024.075-.002.075-.007.153-.008.075-.001.075.003.149 0 .074-.002.074.02.148.018.074-.003.074.007.149.004.079-.003.079-.02.153-.023.074-.004.074 0 .148-.003s.074-.02.15-.024c.073-.003.073.004.152 0 .074-.004.074.01.148.006.075-.005.075-.009.15-.014.073-.005.073-.009.148-.015.074-.004.074.005.153 0 .074-.007.074-.02.148-.026l.149-.011.148-.012c.074-.006.074-.01.153-.018.074-.007.074-.011.149-.018.074-.006.074.007.148 0 .075-.009.075-.025.149-.033.079-.008.079.014.153.006.074-.007.074-.003.148-.011.075-.008.075-.022.149-.03s.074-.013.148-.02c.08-.01.08.003.154-.006a.196.196 0 0 1 .157.047c.043.038.091.08.091.146 0 .083-.008.084-.008.162 0 .083-.018.085-.018.164 0 .078.022.075.018.159v.16a.295.295 0 0 1-.062.183c-.043.045-.109.056-.174.064-.079.01-.079.015-.158.023-.074.009-.14.012-.179-.023-.043-.035-.061-.097-.061-.172 0-.048.004-.097-.009-.134-.013-.043-.052-.055-.1-.072-.035-.01-.07-.024-.127-.017-.078.008-.078.02-.157.029-.074.007-.074-.023-.153-.016-.074.007-.074.041-.153.049-.079.007-.079-.001-.153.005-.079.008-.079-.01-.153-.004l-.153.012c-.078.006-.078.002-.157.007-.075.007-.075.001-.153.007-.074.006-.074.036-.153.041-.074.005-.074-.013-.153-.007-.079.005-.079-.008-.153-.004a.346.346 0 0 0-.162.048c-.048.029-.065.081-.087.135-.013.044-.03.093-.03.154 0 .082-.014.084-.014.17 0 .083.022.165.18.158.082-.005.082 0 .166-.006.083-.004.083-.018.166-.023.083-.005.083-.01.166-.015.083-.006.083.017.166.01a.415.415 0 0 0 .157-.038c.048-.026.1-.077.1-.134 0-.074.005-.131.044-.174.044-.042.1-.056.175-.063.078-.007.078-.003.157-.009.07-.006.118.002.158.042.039.04.087.084.087.153 0 .078-.009.08-.009.162v.161c0 .079.009.078.009.157 0 .083-.009.083-.009.162 0 .078-.013.079-.013.162a.244.244 0 0 1-.061.167c-.04.048-.092.095-.162.102-.079.007-.079-.023-.157-.016-.074.007-.144.016-.183-.02-.04-.036-.053-.104-.053-.179 0-.056-.044-.076-.096-.093a.358.358 0 0 0-.144-.015c-.083.007-.083-.008-.166-.001-.083.005-.083 0-.166.007-.083.005-.083 0-.166.005-.084.004-.084-.008-.167-.003-.143.007-.161.112-.161.195 0 .087.004.086.004.17 0 .061-.009.11 0 .153.014.056.035.107.079.13.035.021.087.01.153.006.004 0 .061-.012.148-.017l.149-.01c.044-.003.096.004.148 0 .048-.004.097-.003.149-.007.048-.004.096.002.149-.003.048-.003.1-.024.148-.03l.149-.012.148-.012c.053-.005.1-.001.149-.005.052-.005.1.004.148-.001.057-.006.105-.037.149-.041.092-.009.074.014.148.006a.397.397 0 0 0 .136-.036c.044-.025.061-.067.074-.113a.308.308 0 0 0 .022-.133c0-.069.035-.13.074-.173.04-.044.097-.059.171-.068.079-.009.079-.04.157-.049.066-.008.114.035.157.072.04.034.066.08.066.15 0 .077.004.077.004.16M159.484 84.784c.039.033.06.099.06.163 0 .08-.017.081-.017.165a.247.247 0 0 1-.057.172c-.039.046-.091.1-.166.113-.057.016-.109.016-.157.03-.061.01-.113.03-.157.042a.944.944 0 0 0-.158.059.216.216 0 0 0-.104.118.43.43 0 0 0-.022.157c0 .075-.013.076-.013.15s-.005.075-.005.15v.152c0 .074.009.073.009.147 0 .073-.009.075-.009.15 0 .073.022.07.022.148 0 .075-.026.078-.026.153v.148a.77.77 0 0 0 .013.155c.013.05.052.074.096.091.035.016.079.043.144.031.005 0 .061-.024.149-.04.04-.006.091-.012.148-.023l.149-.027c.044-.008.096-.004.149-.015l.148-.033c.048-.008.096-.027.145-.036.052-.01.1-.028.152-.038.048-.01.096-.015.149-.025l.148-.03c.053-.01.1-.028.15-.038.051-.01.104-.03.147-.038.092-.018.075-.005.15-.021.052-.011.09-.037.121-.055.049-.028.084-.052.097-.099.013-.042.008-.085.008-.136 0-.07.031-.138.075-.186a.3.3 0 0 1 .17-.109c.083-.018.083-.008.162-.024.065-.015.135-.011.175.023.043.03.056.098.056.167 0 .078-.017.084-.017.165 0 .08.022.074.022.153 0 .083-.013.084-.013.164 0 .082.013.08.013.158a.286.286 0 0 1-.07.185c-.04.048-.105.07-.175.084-.074.015-.074.038-.149.053-.078.017-.078.003-.153.018-.074.015-.074.024-.152.04-.075.016-.075-.003-.15.013-.078.016-.078.043-.152.057-.074.015-.074-.007-.153.01-.074.013-.074.001-.148.016-.08.014-.08.045-.153.06l-.153.03-.15.029c-.077.015-.077.002-.152.016-.074.014-.074.01-.153.025-.074.014-.074.022-.148.036-.08.015-.08.024-.153.038-.08.015-.08.02-.153.032-.075.014-.075.005-.153.02-.074.013-.074.021-.149.035-.078.014-.078-.004-.153.01-.074.012-.074.017-.152.03-.075.014-.075.009-.15.022-.078.014-.078.008-.152.021-.079.014-.079.018-.153.03-.074.013-.074.026-.153.038-.074.013-.074-.009-.149.003-.078.013-.078.017-.152.029-.075.011-.075.02-.153.032-.075.013-.075.024-.153.037-.075.011-.075.002-.15.014-.07.01-.139.003-.178-.035-.044-.033-.044-.102-.044-.168 0-.08-.004-.078-.004-.157 0-.078.026-.125.065-.17.04-.045.084-.068.162-.08.057-.01.11-.022.157-.033.061-.014.114-.035.158-.046.065-.02.109-.06.148-.08.066-.036.105-.06.122-.103a.383.383 0 0 0 .036-.162c0-.075-.023-.07-.023-.145 0-.074-.004-.074-.004-.147 0-.074.01-.076.01-.154v-.148c0-.074-.01-.074-.01-.147 0-.074.018-.078.018-.156 0-.074-.022-.07-.022-.144 0-.075.022-.078.022-.152 0-.062.009-.119-.014-.16-.017-.04-.065-.054-.13-.07-.04-.007-.092-.002-.158-.002-.043.003-.096.006-.157.016-.048.003-.096-.012-.157-.007-.074.011-.131.006-.17-.027a.206.206 0 0 1-.075-.159c0-.084.018-.085.018-.164 0-.065.008-.137.048-.186a.328.328 0 0 1 .183-.079c.07-.01.07.003.144-.008.074-.011.074-.02.149-.032.074-.012.074-.02.144-.031.074-.012.074 0 .148-.011.075-.012.075-.033.15-.046.069-.01.069.014.143.003.075-.013.075-.035.149-.047.074-.012.074.014.144.002.074-.014.074-.026.149-.039.074-.013.074-.026.148-.04.07-.011.07-.002.144-.016.075-.013.075-.021.15-.035.073-.013.073.013.148 0 .07-.013.074-.035.144-.044.074-.01.074.003.148-.01.066-.013.136-.025.18.005M165.862 83.49a.267.267 0 0 1 .091-.107c.035-.026.08-.026.127-.036l.157-.034c.07-.015.118-.009.158.031.039.03.083.075.083.144v.161c0 .083-.018.087-.018.17 0 .083-.009.084-.009.167 0 .078.005.077.005.16s.004.083.004.165a.307.307 0 0 1-.048.19.312.312 0 0 1-.175.111c-.065.014-.065-.003-.135.012a.36.36 0 0 1-.135.003c-.053-.002-.092-.007-.123-.03a.408.408 0 0 1-.083-.096c-.022-.03-.03-.08-.061-.112-.026-.04-.07-.06-.105-.087-.04-.026-.083-.038-.127-.055a.47.47 0 0 0-.13-.045c-.044-.013-.084-.035-.136-.04-.044-.005-.092-.01-.144-.008-.049-.002-.097.004-.15.006-.047.003-.095.018-.147.024-.048.007-.101.005-.153.016-.049.01-.101.027-.153.043a.913.913 0 0 0-.153.055c-.053.02-.101.045-.153.073-.048.024-.092.063-.14.092-.048.032-.11.038-.157.074-.044.036-.083.079-.127.12-.04.038-.07.094-.105.135-.035.048-.088.086-.118.13-.026.05-.035.11-.057.162-.017.05-.039.1-.048.154-.008.055-.035.107-.035.165 0 .051.018.096.027.142.008.051.039.087.052.133.017.043.039.082.066.12.025.034.034.09.07.12a.88.88 0 0 0 .104.086c.04.022.083.038.127.055.044.021.083.043.131.054.044.012.092.015.14.026.048.008.096.006.144.007.048.003.1-.008.153-.011.048-.002.096 0 .149-.007.048-.006.1-.026.148-.037.053-.011.105-.001.153-.017.052-.015.1-.02.148-.036.053-.02.101-.053.15-.072.052-.026.095-.05.143-.076.048-.027.097-.055.14-.082.048-.033.1-.048.144-.08.048-.032.083-.08.123-.113.043-.036.091-.068.13-.103.031-.029.066-.07.114-.099.035-.02.084-.023.132-.028a.25.25 0 0 1 .122.008c.074.019.105.038.17.064.04.013.088.02.11.05.026.03.026.078.021.123a.27.27 0 0 1-.057.125c-.035.042-.065.088-.104.131-.04.039-.084.076-.127.11-.04.04-.083.08-.127.115-.043.03-.087.067-.13.098-.049.031-.093.063-.14.091-.049.03-.093.069-.14.096-.049.024-.097.052-.145.08-.048.023-.1.039-.148.063-.053.02-.105.028-.153.046-.048.019-.096.052-.149.068-.048.019-.1.039-.148.054-.053.016-.105.019-.153.03-.053.016-.105.022-.153.033-.053.011-.1.018-.153.025-.053.011-.105.019-.153.025l-.153.02c-.052.002-.105.007-.153.007-.052.003-.1.001-.153.004-.048-.003-.1.008-.149.002-.052 0-.095-.019-.144-.024-.052-.007-.096-.019-.144-.026a.977.977 0 0 1-.135-.04c-.048-.011-.105-.003-.149-.02s-.087-.034-.131-.054c-.04-.022-.074-.059-.113-.08-.04-.026-.092-.037-.127-.064-.035-.028-.066-.064-.096-.097-.035-.036-.053-.08-.079-.118-.03-.038-.061-.068-.083-.113-.022-.038-.057-.075-.074-.119a.784.784 0 0 1-.04-.14c-.013-.05.005-.106 0-.157-.004-.05-.035-.093-.035-.145 0-.052.013-.108.018-.157.004-.052.004-.105.017-.16.009-.05.048-.101.066-.154.017-.05.035-.104.061-.152.022-.053.017-.11.048-.158.026-.05.066-.093.1-.14a1.664 1.664 0 0 1 .214-.265c.04-.043.075-.094.114-.133.044-.037.092-.068.136-.104.043-.036.087-.07.135-.108.044-.031.096-.052.145-.08.048-.031.091-.063.14-.091.048-.028.095-.06.143-.089.053-.024.097-.06.149-.084.048-.02.1-.04.153-.06.048-.019.105-.014.153-.03.052-.02.105-.035.153-.05.052-.012.105-.019.157-.03.048-.01.1-.04.149-.047.052-.011.1-.022.152-.029.049-.006.1-.017.15-.02.051-.002.1.005.143.008.053-.003.105-.01.149-.006.052.001.096.019.144.02.048.007.1.01.144.017.049.01.083.052.123.06.052.019.091.034.13.046.08.035.119.009.119-.039a.41.41 0 0 1 .022-.131M169.806 84.978c.052-.014.105-.01.157-.028.053-.014.1-.057.148-.079.053-.018.11-.024.158-.049s.092-.073.135-.102c.048-.035.088-.075.127-.113.044-.038.092-.072.127-.112a.844.844 0 0 0 .092-.142c.03-.048.043-.1.06-.154.018-.05.031-.1.04-.154.009-.05.009-.103.009-.155 0-.057.026-.117.017-.164-.008-.051-.035-.095-.052-.14-.017-.05-.053-.083-.079-.122a.346.346 0 0 0-.096-.106c-.035-.033-.057-.082-.1-.105-.04-.024-.097-.031-.14-.05-.048-.014-.092-.033-.145-.04-.048-.015-.095-.015-.148-.019-.052-.005-.1-.017-.153-.016-.052 0-.105.006-.157.01-.053.006-.263.06-.315.075-.052.013-.105.032-.153.046a1.604 1.604 0 0 0-.153.063c-.052.024-.105.033-.153.06-.052.031-.096.07-.14.1-.048.035-.096.064-.135.1a1.198 1.198 0 0 0-.118.133c-.035.041-.057.094-.087.143-.027.049-.057.094-.075.15-.017.052-.017.104-.026.158-.009.05-.044.11-.044.16 0 .057.01.109.018.155a.729.729 0 0 0 .035.15c.017.048.065.073.092.112a.609.609 0 0 0 .092.105c.034.032.06.075.104.101.04.022.092.03.14.047.044.014.087.035.14.043.048.007.1-.001.153.002.052.003.1.011.153.01.052-.001.105-.011.157-.016.052-.005.105-.02.157-.029v.013c.053-.01.105-.027.158-.041m-.005-2.484c.053-.009.1-.014.153-.019.053-.01.105-.027.153-.031.053-.004.101.016.149.017h.153c.052.004.105-.012.153-.008.052.004.1.023.144.033.052.008.092.032.14.046.048.014.104.001.148.02.048.014.083.048.127.067.044.02.092.033.135.057.04.024.075.058.11.088.04.029.087.043.122.077.035.03.061.074.092.109.03.038.07.068.096.107.026.039.03.096.052.136.022.045.057.08.075.125.017.045.039.09.052.14.009.046.018.099.022.15.004.047-.009.102-.009.154 0 .048.005.1 0 .152-.004.05-.004.101-.017.155-.009.05-.044.099-.061.148a.87.87 0 0 1-.057.148c-.022.052-.03.105-.057.153a1.053 1.053 0 0 1-.096.136c-.03.043-.066.084-.105.13-.035.04-.061.087-.1.128-.04.04-.08.077-.123.114-.04.037-.083.066-.131.104-.04.031-.079.074-.127.107-.044.029-.096.046-.144.076-.048.025-.092.067-.14.088-.048.024-.105.027-.153.047-.048.027-.096.064-.144.082-.048.02-.105.023-.157.035-.048.017-.096.056-.149.07-.048.017-.1.005-.153.018-.052.014-.1.044-.153.058-.052.01-.1.027-.153.036-.052.01-.105.006-.157.016-.052.005-.1.014-.153.02-.052.005-.105.019-.153.02-.052.005-.105.006-.153.011-.052.001-.1-.003-.152-.001-.048-.005-.092-.036-.14-.039-.053-.003-.105.008-.153 0-.048-.009-.1-.002-.145-.016-.048-.011-.096-.02-.144-.036-.044-.013-.079-.05-.122-.068-.044-.02-.096-.023-.135-.046a.866.866 0 0 1-.114-.077c-.04-.027-.079-.05-.114-.082-.035-.027-.061-.07-.092-.103-.03-.038-.06-.07-.087-.109-.026-.039-.057-.075-.079-.115-.021-.042-.034-.088-.052-.133-.018-.044-.052-.08-.061-.126a1.686 1.686 0 0 1-.03-.147c-.005-.05-.014-.102-.014-.15 0-.051.017-.107.026-.157.005-.053.005-.106.014-.156.013-.055.035-.107.052-.159a2.3 2.3 0 0 1 .057-.155c.021-.048.039-.1.07-.154.026-.044.065-.091.096-.138.03-.046.052-.097.091-.145.031-.04.092-.07.132-.109.035-.041.074-.084.113-.123.04-.04.083-.073.127-.109.043-.035.078-.09.122-.125l.14-.093c.048-.027.1-.036.153-.065.048-.026.092-.057.144-.084.048-.023.097-.036.149-.06.048-.017.096-.053.148-.071.048-.018.1-.028.153-.042.053-.019.1-.036.153-.05.053-.015.1-.033.153-.042.052-.014.105-.012.157-.02.053-.01.1-.01.153-.015M175.537 84.893a.314.314 0 0 1-.114-.103c-.008-.01-.021-.069-.07-.136-.021-.038-.056-.075-.091-.121-.027-.037-.052-.08-.083-.126-.027-.037-.048-.085-.079-.126-.026-.042-.07-.069-.1-.11-.026-.043-.061-.08-.088-.121-.03-.041-.035-.1-.065-.14-.026-.04-.061-.078-.092-.12-.026-.04-.07-.071-.096-.11-.03-.041-.053-.087-.079-.129a6.797 6.797 0 0 1-.087-.12c-.031-.04-.057-.085-.083-.123-.03-.045-.057-.087-.083-.124-.03-.05-.053-.095-.074-.129-.053-.078-.105-.038-.105.036 0 .07-.01.07-.01.144 0 .07.014.07.014.143 0 .075-.004.074-.004.144 0 .074.017.073.017.147 0 .07-.026.073-.026.147v.143c0 .074.013.074.013.147 0 .056-.009.12.009.16.017.038.07.05.135.067.04.01.087.019.153.022.044.005.096.005.157.005.048-.004.1-.004.158-.003.074-.005.14.007.179.048.04.037.057.1.057.175 0 .078.013.078.013.156 0 .066-.048.117-.092.159-.044.042-.092.08-.157.085-.075.006-.075.01-.153.016-.079.006-.079.011-.153.017-.079.007-.079.002-.153.008-.079.006-.079.007-.153.014-.079.006-.079.007-.153.014-.078.007-.078-.014-.153-.007-.078.007-.078.021-.157.029-.074.008-.074-.001-.153.007-.074.008-.074.034-.153.042-.074.008-.074-.004-.153.005-.074.007-.074-.005-.153.004-.074.008-.074.026-.153.036-.079.008-.079.005-.153.014a.207.207 0 0 1-.166-.044.193.193 0 0 1-.079-.152c0-.078-.008-.077-.008-.156 0-.078.048-.131.087-.176a.254.254 0 0 1 .166-.09c.057-.008.11-.001.158-.011.06-.007.113-.036.157-.045.066-.016.113-.044.153-.066.065-.029.096-.058.113-.104.018-.045.044-.097.044-.153 0-.078-.018-.077-.018-.15 0-.075-.004-.074-.004-.148 0-.075.018-.076.018-.15 0-.08.004-.08.004-.153 0-.075-.013-.073-.013-.147s-.005-.074-.005-.148c0-.079.014-.08.014-.154 0-.075-.005-.073-.005-.148a.366.366 0 0 0-.035-.149c-.017-.037-.048-.064-.113-.083-.04-.008-.087-.025-.153-.026-.044.002-.096.016-.157.019-.049.006-.101-.006-.162-.002-.075.01-.144.013-.183-.02-.04-.034-.045-.104-.045-.178 0-.082.014-.084.014-.163 0-.065.017-.116.06-.16a.239.239 0 0 1 .158-.085c.035-.005.088-.029.149-.036.044-.005.092.011.148.004.044-.005.096-.012.149-.017.048-.006.096-.01.148-.017.048-.005.097-.024.149-.03.048-.004.096-.017.148-.023.049-.005.097.007.15.002.047-.005.1-.023.148-.028.048-.004.1.008.148.004l.149-.013c.061-.006.114-.027.149-.03.06-.005.108.016.157.026.056.009.109.013.148.05.035.027.057.074.092.124.04.062.057.048.1.11.04.063.027.067.07.13.04.063.053.054.092.112.044.062.022.077.066.14.039.058.06.044.1.107.04.063.026.072.066.135.039.06.039.063.078.122.044.064.062.054.1.113.04.063.014.081.058.14.04.064.061.05.105.109.04.063.035.068.078.127.04.064.105.06.149-.007.039-.062.057-.055.096-.121.04-.063.04-.068.079-.134.039-.063.039-.062.083-.13.039-.066.039-.061.083-.128.04-.067.022-.075.06-.141.04-.066.058-.055.097-.12.044-.067.048-.063.087-.13.044-.061.04-.065.079-.132.04-.061.03-.07.07-.136.044-.062.052-.057.092-.124.043-.061.048-.063.087-.127.03-.048.053-.097.092-.132a.318.318 0 0 1 .148-.066.537.537 0 0 1 .158-.018c.03 0 .083-.018.153-.016.043 0 .096-.009.153-.008.048 0 .096.019.153.02.048.001.1.007.152.008.049 0 .1-.007.153-.005.048.002.1.016.153.018l.153.006c.053.001.1-.018.153-.015.053.002.105.03.153.033.052.003.105-.02.153-.018.061.004.114.012.153.014a.243.243 0 0 1 .157.085.223.223 0 0 1 .074.162c0 .078.018.08.018.162 0 .075-.04.129-.078.165a.226.226 0 0 1-.171.063c-.057-.004-.11-.016-.157-.019-.062 0-.114.011-.158.014-.065.005-.117.001-.161.013a.207.207 0 0 0-.123.095.444.444 0 0 0-.021.16c0 .075.008.076.008.15 0 .073.01.074.01.148 0 .078.003.08.003.153 0 .074-.021.074-.021.147s.008.075.008.149c0 .078.01.078.01.152 0 .075-.014.075-.014.148s.013.076.013.153c0 .058-.017.113 0 .157.022.04.061.077.127.106.04.015.092.022.157.034.048.007.1.01.157.013.048.007.1.019.162.027.074.004.131.029.17.073.04.042.053.1.053.178v.157c0 .065-.009.13-.048.166-.044.036-.11.045-.175.04-.074-.005-.074-.014-.149-.017-.074-.005-.074.018-.148.014-.07-.004-.07-.022-.145-.025-.073-.004-.073.015-.148.011-.074-.003-.074-.016-.144-.019-.074-.003-.074-.015-.149-.018-.074-.002-.074.007-.148.004-.07 0-.07.025-.144.024-.075-.002-.075-.023-.149-.025-.074-.002-.074-.008-.144-.01-.075-.001-.075.024-.149.025-.074 0-.074-.022-.148-.022-.075 0-.075-.004-.144-.004-.075 0-.075.019-.15.019-.073 0-.073-.004-.148-.003-.065.001-.135-.011-.174-.049a.233.233 0 0 1-.07-.172c0-.078.021-.08.021-.158 0-.075.013-.131.058-.171.038-.041.091-.055.165-.056.057 0 .11-.019.158-.02.06-.004.113-.004.161-.014.062-.009.11-.035.149-.048.065-.026.1-.048.118-.087.017-.043.013-.096.013-.152 0-.074.017-.074.017-.149 0-.07-.017-.069-.017-.143 0-.074.022-.074.022-.144 0-.074-.009-.075-.009-.144 0-.074-.017-.075-.017-.149 0-.07.021-.069.021-.143 0-.145-.122-.097-.166-.031-.043.061-.056.053-.1.118-.04.061-.026.07-.07.135-.04.061-.057.054-.096.119-.044.062-.035.065-.079.131l-.083.128c-.044.066-.035.07-.079.132-.039.066-.056.054-.1.12-.04.062-.017.079-.061.14-.04.067-.057.058-.096.12-.044.067-.048.063-.088.13-.043.062-.03.074-.07.137-.043.067-.043.066-.087.129-.044.066-.04.067-.083.134-.04.057-.074.112-.122.148a.365.365 0 0 1-.188.057c-.057.002.065-.026-.01-.022-.064.003-.117-.003-.152-.027M184.608 85.34c0 .079.009.081.009.164 0 .078-.018.072-.018.15 0 .084-.004.082-.004.16 0 .066-.018.113-.061.138-.04.026-.092.021-.158 0-.079-.024-.079-.007-.152-.03-.075-.024-.075-.028-.153-.052-.075-.023-.075-.03-.154-.055-.074-.022-.074-.023-.148-.043-.079-.022-.079-.019-.153-.04-.074-.02-.074.005-.153-.016-.074-.02-.074-.037-.153-.058-.074-.02-.074-.002-.149-.022-.078-.02-.078-.024-.153-.043-.073-.018-.073-.022-.152-.042-.074-.017-.074-.035-.149-.053-.079-.018-.079-.005-.153-.022l-.153-.034c-.074-.016-.074-.03-.153-.046-.074-.017-.074-.002-.148-.018-.079-.016-.079-.01-.153-.026-.075-.014-.075-.042-.153-.056-.075-.014-.075.012-.148-.002-.08-.013-.08-.023-.153-.036-.075-.013-.075-.01-.154-.023l-.148-.024-.153-.025c-.074-.012-.074-.02-.153-.031-.074-.011-.074-.003-.148-.013l-.154-.022c-.074-.01-.074-.018-.152-.028-.074-.01-.074.008-.153-.002-.075-.01-.075-.017-.149-.027-.07-.008-.118-.052-.157-.096-.044-.044-.096-.096-.096-.163 0-.079.035-.075.035-.153 0-.08.013-.125.052-.165.04-.034.092-.072.166-.063.057.002.11.021.158.023.06.003.113.023.161.02.061 0 .11-.02.149-.032.065-.014.096-.035.113-.076a.289.289 0 0 0 .035-.148c0-.074.009-.074.009-.147s-.013-.076-.013-.15c0-.078-.013-.08-.013-.154 0-.075-.009-.076-.009-.15s.018-.071.018-.145c0-.079.008-.078.008-.152 0-.075-.013-.076-.013-.15s.018-.071.018-.146c0-.062-.027-.112-.048-.16a.2.2 0 0 0-.105-.11c-.04-.019-.088-.046-.153-.064-.044-.014-.101-.003-.157-.015-.049-.01-.101-.046-.162-.054-.075-.008-.127-.028-.166-.07a.243.243 0 0 1-.057-.173c0-.082.004-.082.004-.16 0-.066.005-.131.048-.165.04-.036.105-.028.175-.02.074.009.074.012.149.022.074.01.074 0 .153.01.074.01.074.005.148.016.074.01.074-.013.149-.002.074.011.074.007.153.019.074.011.074.015.148.027.074.01.074.033.149.045.074.012.074.02.148.033.08.013.08-.004.153.01.075.012.075.017.149.03.074.013.074-.003.149.01.074.014.074.023.152.039.075.013.075.027.149.043.074.015.074.01.149.026.074.016.074.01.148.027.074.016.074.026.153.043.074.017.074.003.149.021l.148.036c.075.019.075.017.149.036.074.018.074.014.153.034.074.018.074.015.148.034.074.02.074.033.149.053.074.02.074.001.148.023.08.022.08.044.153.065.074.021.074.026.149.048.074.022.074.008.148.03.075.024.075.019.15.042.078.024.078.038.152.061a.32.32 0 0 1 .157.117c.044.056.092.122.092.187 0 .082-.009.08-.009.158 0 .083-.017.077-.017.156 0 .078.022.085.017.166v.161c0 .067-.022.124-.061.155-.044.024-.109.009-.175-.013-.078-.025-.078-.02-.157-.045-.074-.023-.14-.047-.18-.098a.303.303 0 0 1-.06-.198c0-.047.004-.094-.01-.137-.012-.048-.052-.076-.1-.113-.034-.023-.07-.05-.126-.067-.079-.023-.079-.008-.158-.03-.074-.021-.074-.052-.153-.073-.074-.02-.074.015-.153-.005-.078-.02-.078-.03-.153-.048-.078-.02-.078-.037-.152-.056l-.153-.037c-.079-.019-.079-.024-.158-.041-.074-.017-.074-.022-.153-.04-.074-.015-.074.014-.153-.002-.074-.017-.074-.033-.152-.05-.079-.015-.079-.03-.153-.044a.301.301 0 0 0-.162.007c-.048.017-.065.066-.088.114-.013.042-.03.085-.03.147 0 .082-.013.08-.013.168 0 .082.022.168.179.2.083.016.083.02.166.037.083.016.083.004.166.021.083.018.083.013.166.032.083.018.083.04.166.058.048.01.11.021.158.01.048-.01.1-.046.1-.102 0-.074.004-.131.044-.16.044-.029.1-.024.174-.004.079.019.079.024.158.044.07.019.118.044.157.098.04.055.088.115.088.185 0 .079-.01.076-.01.159v.161c0 .08.01.08.01.16 0 .082-.01.08-.01.158 0 .079-.012.075-.012.158 0 .066-.022.116-.062.145-.039.033-.091.063-.161.045-.079-.02-.079-.051-.158-.07-.074-.019-.144-.032-.183-.081-.04-.048-.052-.121-.052-.196 0-.055-.044-.088-.097-.123a.426.426 0 0 0-.144-.06c-.083-.018-.083-.031-.166-.05-.083-.017-.083-.022-.166-.04-.083-.017-.083-.022-.166-.038-.083-.017-.083-.03-.166-.047-.144-.028-.161.075-.161.157 0 .088.004.088.004.171 0 .061-.01.107 0 .153.013.059.035.116.078.15.035.028.088.03.153.043.005 0 .062.003.149.021l.149.031c.043.01.096.03.148.041.048.01.096.025.149.037.048.012.096.03.148.044.048.011.1.007.149.017l.148.037.149.038c.052.013.1.034.148.047.053.014.101.04.149.053.057.016.105.003.148.015.092.028.075.042.149.064a.37.37 0 0 0 .136.017c.043-.008.06-.042.074-.082a.25.25 0 0 0 .022-.124.17.17 0 0 1 .074-.143c.04-.028.096-.018.17.004.08.025.08-.006.158.02.065.021.113.084.157.142.04.053.066.11.066.179 0 .078.004.08.004.162M186.018 85.714V85.7 85.714c.048.02.083.008.105-.018.022-.021.026-.063.035-.099.013-.028.03-.07.048-.123.009-.04.009-.092.022-.144.009-.04.026-.08.04-.126l.039-.132c.008-.044.025-.086.034-.129l.026-.136c.01-.05.01-.101.018-.146.009-.048.022-.09.026-.136.01-.05.01-.101.013-.147.009-.049.009-.1.009-.145 0-.047.009-.092 0-.14-.004-.049-.004-.1-.017-.146-.014-.053-.049-.108-.07-.153-.026-.055-.048-.108-.079-.151a.724.724 0 0 0-.113-.127.55.55 0 0 0-.136-.1.572.572 0 0 0-.135-.016.242.242 0 0 0-.114.037.326.326 0 0 0-.088.079c-.017.029-.03.07-.048.112a.823.823 0 0 0-.034.121 1.22 1.22 0 0 0 0 .292c.004.05.004.098.012.153.005.05.027.106.035.162.01.052.014.105.027.158.008.056.008.105.022.162.008.05.026.106.039.159.009.056.026.112.04.164.012.057.012.105.025.159.014.058.031.112.04.16.017.068.022.121.03.16.01.043.035.088.057.132.018.038.044.084.092.104m.454.786a.245.245 0 0 1-.035.137.185.185 0 0 1-.109.066.434.434 0 0 1-.148-.011l-.158-.04a.883.883 0 0 1-.157-.085.747.747 0 0 1-.144-.12.556.556 0 0 1-.114-.153c-.021-.052-.048-.11-.048-.171 0-.057.018-.107.044-.14a.196.196 0 0 1 .109-.075.42.42 0 0 1 .149-.002c.048.01.105.034.161.058 0 0 .114.05.162.08a.936.936 0 0 1 .148.13c.044.049.084.1.11.16a.37.37 0 0 1 .03.166" fill="#182642"/><path d="M65.245 108.03a10.325 10.325 0 0 0-9.534 6.347 15.334 15.334 0 0 0-2.532-3.252c.433-.816.681-1.744.681-2.732 0-3.229-2.623-5.846-5.86-5.846a5.857 5.857 0 0 0-5.62 4.204c-7.668.035-14.003 5.684-15.091 13.039-.18-.005-.36-.014-.542-.014-11.036 0-19.983 8.926-19.983 19.936 0 .858.061 1.7.167 2.53l-.167-.228c-5.35-.485-6.49 5.573-6.49 5.573H45.107a19.832 19.832 0 0 0 1.622-7.875l18.515-1.605v-9.48c5.701 0 10.323-4.612 10.323-10.299 0-5.687-4.622-10.298-10.323-10.298" fill="#E9E9E9"/><path d="M65.245 138.107h.004-.004zM.62 147.315h44.307a19.484 19.484 0 0 0 1.53-7.603c0-.142.108-.26.25-.272l18.265-1.583v-9.23c0-.151.123-.273.273-.273 5.542 0 10.05-4.498 10.05-10.026s-4.508-10.026-10.05-10.026a10.027 10.027 0 0 0-9.282 6.18.273.273 0 0 1-.234.167.265.265 0 0 1-.254-.135 15.078 15.078 0 0 0-2.487-3.194.272.272 0 0 1-.05-.323c.43-.81.649-1.687.649-2.604 0-3.073-2.506-5.573-5.586-5.573a5.611 5.611 0 0 0-5.36 4.008.273.273 0 0 1-.26.196c-7.375.033-13.747 5.538-14.822 12.806a.285.285 0 0 1-.277.232l-.177-.005c-.119-.004-.238-.008-.358-.008-10.868 0-19.71 8.82-19.71 19.663 0 .811.054 1.628.165 2.495a.273.273 0 0 1-.492.195l-.093-.126c-4.25-.3-5.674 3.835-5.997 5.039zm44.488.545H.273a.273.273 0 0 1-.268-.323c.011-.063 1.218-6.15 6.592-5.81-.071-.69-.106-1.354-.106-2.015 0-11.143 9.087-20.208 20.256-20.208.104 0 .207.003.309.006 1.207-7.346 7.646-12.898 15.121-13.03a6.163 6.163 0 0 1 5.824-4.205c3.381 0 6.132 2.744 6.132 6.118 0 .925-.214 1.847-.62 2.678a15.617 15.617 0 0 1 2.161 2.718 10.57 10.57 0 0 1 9.571-6.032c5.843 0 10.596 4.742 10.596 10.571 0 5.738-4.606 10.423-10.322 10.567v9.212c0 .141-.109.26-.25.271l-18.267 1.584a20.028 20.028 0 0 1-1.643 7.733.274.274 0 0 1-.251.165z" fill="#182642"/><path d="M153.474 147.587c0-3.63-2.453-6.685-5.794-7.614.016-.277.025-.555.025-.836 0-7.93-6.253-14.357-13.965-14.357-.082 0-.162.005-.244.006v-3.185a4.365 4.365 0 0 0 3.887-4.333 4.367 4.367 0 0 0-5.492-4.212c-1.66-6.565-8.194-11.467-16.006-11.467-6.518 0-12.148 3.41-14.8 8.352a9.595 9.595 0 0 0-9.122-6.606c-5.299 0-9.594 4.285-9.594 9.571a9.6 9.6 0 0 0 .191 1.911v21.836l31.991 10.934h38.923" fill="#D8D8D8"/><path d="M114.597 147.315h38.599a7.66 7.66 0 0 0-5.59-7.08.273.273 0 0 1-.2-.277c.016-.272.026-.545.026-.821 0-7.766-6.142-14.085-13.692-14.085-.045 0-.088.002-.133.004l-.106.003a.342.342 0 0 1-.196-.078.274.274 0 0 1-.082-.195v-3.185c0-.139.105-.255.243-.27a4.085 4.085 0 0 0 3.644-4.063 4.099 4.099 0 0 0-4.099-4.09c-.344 0-.697.048-1.05.142a.273.273 0 0 1-.335-.197c-1.676-6.63-8.15-11.262-15.741-11.262-6.169 0-11.883 3.222-14.559 8.208a.273.273 0 1 1-.5-.044 9.296 9.296 0 0 0-8.863-6.418c-5.14 0-9.321 4.172-9.321 9.3 0 .624.063 1.249.186 1.856a.246.246 0 0 1 .005.054v21.641l31.764 10.857zm38.877.545h-38.922a.28.28 0 0 1-.089-.015l-31.992-10.934a.274.274 0 0 1-.184-.258v-21.809a9.909 9.909 0 0 1-.192-1.938c0-5.428 4.427-9.844 9.868-9.844a9.84 9.84 0 0 1 9.177 6.226c2.88-4.862 8.596-7.972 14.745-7.972 7.743 0 14.364 4.68 16.203 11.414.31-.064.619-.096.923-.096 2.561 0 4.645 2.079 4.645 4.634a4.63 4.63 0 0 1-3.886 4.57v2.67c7.837.016 14.208 6.572 14.208 14.629 0 .213-.005.425-.014.635 3.416 1.05 5.783 4.232 5.783 7.815 0 .15-.122.273-.273.273z" fill="#182642"/><path d="M58.04 56.459c1.097 11.77 4.43 19.925 6.011 23.24.196.585.479 1.13.832 1.623l.022.03a6.17 6.17 0 0 0 4.995 2.564h15.9c2.076 0 3.93-.977 5.05-2.557 0 0 .11-.192.303-.559.106-.184.203-.374.29-.57 2.72-5.474 13.34-30.503.185-65.374 0 0-3.989-10.878-11.72-13.993-1.206-.485-2.08-.5-2.08-.5-.81.012-1.982.5-1.982.5-7.742 3.09-11.72 13.993-11.72 13.993-6.178 16.372-7.113 30.575-6.086 41.603" fill="#09A0DB"/><path d="M63.555 64.288c3.61 4.381 9.082 7.178 15.21 7.178 8.725 0 16.119-5.663 18.703-13.503l-.578 5.416-2.914 10.268-1.823 4.883-1.304 2.829-2.52 2.102-5.147.59-13.282-.135-3.659-1.046-2.277-3.172-2.903-7.519-1.742-7.21-.41-.681.91.272 3.736-.272" fill="#1280A1"/><path d="M102.468 80.696c-.008 0-.015 0-.023-.002a.277.277 0 0 1-.253-.298L103.1 69.8c.005-.038.273-2.107-1.879-4.845l-4.09-4.954a.276.276 0 1 1 .427-.35l4.094 4.959c2.317 2.946 2.011 5.162 1.997 5.255l-.905 10.578a.277.277 0 0 1-.276.253M101.562 84.663c-.398 0-.767-.216-.82-.25a.275.275 0 0 1-.054-.042l-7.578-7.728a.276.276 0 1 1 .395-.387l7.552 7.702c.157.087.486.213.662.12.15-.08.194-.335.204-.535l.168-1.966a.28.28 0 0 1 .3-.252.277.277 0 0 1 .252.3l-.168 1.955c-.024.49-.192.824-.498.985a.878.878 0 0 1-.415.098" fill="#182642"/><path d="M93.308 76.725a.275.275 0 0 1-.198-.083l-.208-.212a.276.276 0 1 1 .395-.386l.208.212a.276.276 0 0 1-.197.47" fill="#182642"/><path d="M104.366 134.36a6.179 6.179 0 0 0 .227-1.644c0-3.43-2.786-6.21-6.224-6.21a6.202 6.202 0 0 0-4.016 1.47c-1.32-8.036-8.755-14.191-17.731-14.191-9.908 0-17.94 7.499-17.94 16.75 0 1.02.103 2.018.29 2.988-.853-.071-1.719-.11-2.598-.11-11.428 0-20.897 6.146-22.586 14.175h89.115c-2.057-6.807-9.38-12.084-18.537-13.229" fill="#F1F1F1"/><path d="M34.129 147.315h88.401c-2.188-6.61-9.283-11.57-18.198-12.685a.274.274 0 0 1-.23-.343 5.93 5.93 0 0 0 .218-1.572c0-3.273-2.67-5.936-5.95-5.936a5.96 5.96 0 0 0-3.84 1.405.274.274 0 0 1-.446-.164c-1.307-7.96-8.814-13.963-17.462-13.963-9.742 0-17.667 7.392-17.667 16.478 0 .967.096 1.956.285 2.936a.271.271 0 0 1-.29.323 31.28 31.28 0 0 0-2.576-.11c-10.897 0-20.379 5.837-22.245 13.63m88.774.546H33.788a.273.273 0 0 1-.268-.329c1.756-8.339 11.367-14.391 22.854-14.391.735 0 1.496.028 2.266.083a15.985 15.985 0 0 1-.231-2.688c0-9.387 8.17-17.023 18.213-17.023 8.749 0 16.366 5.974 17.92 13.969a6.508 6.508 0 0 1 3.827-1.247c3.583 0 6.498 2.907 6.498 6.481 0 .466-.055.94-.162 1.414 9.143 1.237 16.37 6.466 18.46 13.38a.273.273 0 0 1-.262.351" fill="#182642"/><path d="M63.242 134.714a.279.279 0 0 1-.09-.015c-.024-.007-2.332-.804-4.194-.904a.273.273 0 0 1-.259-.287.272.272 0 0 1 .288-.257c1.941.104 4.247.9 4.345.933a.272.272 0 0 1-.09.53M95.363 135.017a.273.273 0 0 1-.032-.543c.27-.033 6.644-.793 9.08-.384a.273.273 0 1 1-.09.538c-2.361-.397-8.86.38-8.925.387a.254.254 0 0 1-.033.002" fill="#182642"/><path d="M78.623 147.587a8.892 8.892 0 0 1 8.756-7.3 8.893 8.893 0 0 1 8.755 7.298" fill="#D8D8D8"/><path d="M78.623 147.86a.273.273 0 0 1-.27-.32c.783-4.36 4.579-7.525 9.026-7.525 4.445 0 8.24 3.164 9.024 7.522a.272.272 0 0 1-.22.316.275.275 0 0 1-.318-.22c-.737-4.098-4.306-7.073-8.486-7.073-4.182 0-7.752 2.976-8.487 7.075a.273.273 0 0 1-.269.225M101.224 113.39a.273.273 0 0 1-.273-.296 12.996 12.996 0 0 0-.134-3.192.273.273 0 0 1 .537-.104c.012.062.295 1.54.142 3.343a.274.274 0 0 1-.272.25M127.576 125.749a.273.273 0 0 1-.171-.485c1.137-.914 5.593-.854 6.097-.841.151.003.271.127.268.277-.003.151-.131.263-.279.268-1.314-.03-4.91.051-5.743.72a.274.274 0 0 1-.172.06M122.513 147.86h-3.408a.273.273 0 1 1 0-.545h3.408a.273.273 0 1 1 0 .545M143.03 140.47a.273.273 0 0 1-.068-.537c.112-.029 2.764-.7 4.769-.318a.273.273 0 1 1-.102.535c-1.884-.358-4.505.304-4.53.31a.291.291 0 0 1-.07.01" fill="#182642"/><path d="M42.388 106.66s-.508 1.87.262 3.187" fill="#F1F1F1"/><path d="M42.627 110.12a.273.273 0 0 1-.24-.141c-.772-1.397-.293-3.306-.272-3.387a.275.275 0 0 1 .332-.196.272.272 0 0 1 .197.332c-.004.017-.444 1.782.222 2.987a.272.272 0 0 1-.24.405" fill="#182642"/><path d="M55.71 114.286s.852 1.422 1.126 2.467" fill="#F1F1F1"/><path d="M56.835 117.025a.273.273 0 0 1-.264-.203c-.26-.995-1.087-2.382-1.095-2.396a.274.274 0 0 1 .47-.28c.035.06.874 1.468 1.154 2.538a.272.272 0 0 1-.265.341" fill="#182642"/><path d="M27.289 119.699s3.725.098 6.002 2.188" fill="#F1F1F1"/><path d="M33.29 122.16a.272.272 0 0 1-.184-.072c-2.177-1.998-5.788-2.116-5.824-2.117a.273.273 0 0 1-.266-.28.28.28 0 0 1 .28-.265c.156.005 3.854.126 6.18 2.26a.272.272 0 0 1-.185.473M22.008 138.026a.273.273 0 0 1-.226-.12 4.794 4.794 0 0 1 1.27-6.662 4.784 4.784 0 0 1 3.602-.746 4.776 4.776 0 0 1 3.076 2.013.273.273 0 0 1-.452.307 4.233 4.233 0 0 0-2.726-1.785 4.243 4.243 0 0 0-3.193.662 4.249 4.249 0 0 0-1.125 5.905.272.272 0 0 1-.226.426M117.435 123.363a.272.272 0 0 1-.236-.409 3.317 3.317 0 0 0 .335-2.539 3.325 3.325 0 0 0-1.563-2.032 3.363 3.363 0 0 0-4.583 1.225.274.274 0 0 1-.473-.273 3.91 3.91 0 0 1 5.329-1.424 3.868 3.868 0 0 1 1.818 2.363 3.86 3.86 0 0 1-.39 2.953.274.274 0 0 1-.237.136" fill="#182642"/><path d="M111.16 119.504a.273.273 0 0 1-.273-.272 2.16 2.16 0 0 0-4.321 0 .273.273 0 0 1-.547 0 2.707 2.707 0 0 1 5.414 0c0 .15-.122.272-.273.272M134.286 142.045a.273.273 0 1 1 0-.546c.82 0 1.488-.666 1.488-1.484s-.668-1.484-1.488-1.484a.273.273 0 1 1 0-.545c1.122 0 2.034.91 2.034 2.029 0 1.119-.912 2.03-2.034 2.03" fill="#182642"/><path d="M22.354 114.319c0 .663-.539 1.2-1.203 1.2a1.202 1.202 0 0 1-1.204-1.2c0-.663.539-1.2 1.204-1.2.664 0 1.203.537 1.203 1.2" fill="#F1F1F1"/><path d="M21.15 113.39a.93.93 0 0 0-.93.93.93.93 0 0 0 1.86 0 .93.93 0 0 0-.93-.93m0 2.402c-.814 0-1.476-.66-1.476-1.473a1.477 1.477 0 0 1 2.953 0c0 .812-.662 1.473-1.476 1.473" fill="#182642"/><path d="M57.694 107.048c0 .663-.54 1.2-1.204 1.2a1.202 1.202 0 0 1-1.204-1.2c0-.663.54-1.2 1.204-1.2.665 0 1.204.537 1.204 1.2" fill="#F1F1F1"/><path d="M56.49 106.12a.93.93 0 0 0-.93.928.93.93 0 0 0 1.86 0 .93.93 0 0 0-.93-.928m0 2.401c-.814 0-1.477-.66-1.477-1.473a1.477 1.477 0 0 1 2.954 0c0 .812-.663 1.473-1.477 1.473" fill="#182642"/><path d="M140.402 121.95c0 .663-.539 1.2-1.203 1.2a1.202 1.202 0 0 1-1.204-1.2c0-.663.539-1.2 1.204-1.2.664 0 1.203.537 1.203 1.2" fill="#F1F1F1"/><path d="M139.199 121.022a.93.93 0 0 0-.93.928.93.93 0 0 0 1.86 0 .93.93 0 0 0-.93-.928m0 2.4c-.815 0-1.477-.66-1.477-1.472a1.477 1.477 0 0 1 2.953 0c0 .812-.662 1.473-1.476 1.473" fill="#182642"/><path d="M134.937 108.137c0 .663-.54 1.2-1.204 1.2a1.202 1.202 0 0 1-1.204-1.2c0-.663.54-1.201 1.204-1.201.665 0 1.204.538 1.204 1.2" fill="#F1F1F1"/><path d="M133.733 107.209a.93.93 0 0 0-.93.928.93.93 0 0 0 1.86 0 .93.93 0 0 0-.93-.928m0 2.401c-.814 0-1.477-.66-1.477-1.473a1.477 1.477 0 0 1 2.954 0c0 .812-.663 1.473-1.477 1.473" fill="#182642"/><path d="M49.394 144.656A2.765 2.765 0 0 1 50.796 141a2.777 2.777 0 0 1 3.664 1.4" fill="#F1F1F1"/><path d="M49.394 144.928a.274.274 0 0 1-.25-.16 3.015 3.015 0 0 1-.063-2.327 3.022 3.022 0 0 1 1.604-1.69 3.028 3.028 0 0 1 2.331-.062c.76.29 1.362.858 1.693 1.6a.273.273 0 1 1-.499.222 2.482 2.482 0 0 0-1.39-1.313 2.486 2.486 0 0 0-1.912.051 2.48 2.48 0 0 0-1.317 1.387c-.238.622-.22 1.3.052 1.909a.273.273 0 0 1-.25.383M57.053 142.021a.712.712 0 0 1-.983.204.708.708 0 1 1 .78-1.185.707.707 0 0 1 .203.981M47.952 145.653a.71.71 0 1 1-1.418-.002.71.71 0 0 1 1.418.002M93.123 135.48a.712.712 0 0 1-.983.203.708.708 0 0 1-.204-.982.71.71 0 0 1 1.187.778M116.809 125.301a.712.712 0 0 1-.984.204.708.708 0 1 1 .78-1.185.707.707 0 0 1 .204.981M132.476 138.387a.712.712 0 0 1-.983.204.708.708 0 1 1 .78-1.185.707.707 0 0 1 .203.981M101.505 115.487a.712.712 0 0 1-.984.203.708.708 0 1 1 .78-1.185.708.708 0 0 1 .204.982M133.392 121.784c-1.765 0-2.956-.774-3.006-.808a.272.272 0 0 1-.077-.377.275.275 0 0 1 .378-.077c.012.007 1.16.755 2.805.716a.273.273 0 1 1 .01.545h-.11M35.555 123.847a.711.711 0 0 1-.984.203.708.708 0 1 1 .78-1.184.707.707 0 0 1 .204.98M45.035 111.851a.712.712 0 0 1-.984.204.708.708 0 1 1 .78-1.185.708.708 0 0 1 .204.981M23.901 139.841a.712.712 0 0 1-.983.204.708.708 0 1 1 .78-1.185.708.708 0 0 1 .203.981M21.715 141.295a.712.712 0 0 1-.983.203.708.708 0 1 1 .78-1.184.707.707 0 0 1 .203.981" fill="#182642"/><path d="M68.869 124.943c.167-1.41 1.313-2.433 2.56-2.286 1.246.148 2.12 1.41 1.953 2.82" fill="#F1F1F1"/><path d="M73.383 125.749a.273.273 0 0 1-.272-.305 2.458 2.458 0 0 0-.4-1.695c-.324-.467-.79-.759-1.315-.82-.524-.062-1.046.112-1.47.49-.434.388-.713.94-.786 1.556a.274.274 0 0 1-.543-.064 3.003 3.003 0 0 1 .965-1.897c.542-.486 1.217-.707 1.899-.627.681.08 1.285.454 1.7 1.052.406.587.581 1.321.493 2.07a.273.273 0 0 1-.271.24M51.912 119.206c-.012 0-.023 0-.035-.002a.273.273 0 0 1-.237-.304 1.487 1.487 0 0 0-2.387-1.359 1.473 1.473 0 0 0-.564.987.274.274 0 0 1-.543-.068 2.016 2.016 0 0 1 .771-1.35 2.033 2.033 0 0 1 3.265 1.858.273.273 0 0 1-.27.238M69.08 127.117a.712.712 0 0 1-.984.203.708.708 0 1 1 .78-1.184.707.707 0 0 1 .203.98" fill="#182642"/><path fill="#1280A1" d="M94.4 24.583H61.11l1.457-4.3h30.74zM89.254 41.34c0 6.318-5.133 11.438-11.464 11.438-6.332 0-11.465-5.12-11.465-11.437 0-6.317 5.133-11.437 11.465-11.437 6.331 0 11.464 5.12 11.464 11.437"/><path d="M102.407 147.86h-39.59a.273.273 0 1 1 0-.545h39.59a.273.273 0 1 1 0 .545" fill="#182642"/><path fill="#1280A1" d="M96.587 64.95h-37.3l-.728-4.3h38.757z"/><path fill="#287AB9" d="M94.4 23.76H61.475l1.093-4.3h30.74zM96.587 64.314h-37.3l-.728-4.3h38.757z"/><path d="M89.254 40.13c0 6.316-5.133 11.436-11.464 11.436-6.332 0-11.465-5.12-11.465-11.437 0-6.316 5.133-11.437 11.465-11.437 6.331 0 11.464 5.12 11.464 11.437" fill="#FFD732"/><mask id="c" fill="#fff"><use xlink:href="#b"/></mask><path fill="#182642" mask="url(#c)" d="M62.423 19.69h30.734v-.426H62.423zM60.965 24.005h33.649v-.426H60.965z"/><path d="M67.463 40.765c0-6.316 5.133-11.437 11.465-11.437 1.957 0 3.8.49 5.411 1.354a11.427 11.427 0 0 0-6.46-1.99c-6.332 0-11.465 5.12-11.465 11.437 0 4.364 2.45 8.156 6.053 10.084-3.02-2.06-5.004-5.522-5.004-9.448" fill="#FFF59D" mask="url(#c)"/><path fill="#182642" mask="url(#c)" d="M58.545 60.17h38.682v-.426H58.545zM58.909 64.532h37.589v-.426h-37.59zM65.58 62.164a.83.83 0 1 1-1.66-.002.83.83 0 0 1 1.66.002M91.814 62.164a.83.83 0 1 1-1.66-.002.83.83 0 0 1 1.66.002M78.708 21.603a.83.83 0 0 1-.831.83.83.83 0 1 1 0-1.659.83.83 0 0 1 .83.83M68.505 21.603a.83.83 0 0 1-.83.83.83.83 0 1 1 0-1.659.83.83 0 0 1 .83.83M88.908 21.603a.83.83 0 0 1-.83.83.83.83 0 1 1 0-1.659.83.83 0 0 1 .83.83"/><path d="M85.262 83.9c0 2.374-1.947 4.316-4.326 4.316h-6.832c-2.38 0-4.326-1.942-4.326-4.315" fill="#0090DB" mask="url(#c)"/><path d="M80.937 88.58h-6.833c-2.587 0-4.69-2.099-4.69-4.68h.729a3.961 3.961 0 0 0 3.96 3.953h6.834a3.961 3.961 0 0 0 3.96-3.952h.73c0 2.58-2.104 4.679-4.69 4.679" fill="#182642" mask="url(#c)"/><path d="M83.353 34.542a7.81 7.81 0 0 1 2.3 5.544c0 4.333-3.52 7.845-7.864 7.845a7.83 7.83 0 0 1-4.645-1.525 7.85 7.85 0 0 0 5.563 2.3c4.344 0 7.864-3.511 7.864-7.844a7.82 7.82 0 0 0-3.218-6.32" fill="#FFF59D" mask="url(#c)"/><path d="M83.353 34.542a7.848 7.848 0 0 0-5.564-2.301c-4.342 0-7.863 3.512-7.863 7.845 0 2.597 1.27 4.892 3.218 6.32a7.83 7.83 0 0 0 4.645 1.525c4.343 0 7.864-3.512 7.864-7.845a7.81 7.81 0 0 0-2.3-5.544" fill="#6ACCEF" mask="url(#c)"/><path d="M77.79 29.056c-6.12 0-11.1 4.967-11.1 11.073 0 6.106 4.98 11.074 11.1 11.074 6.12 0 11.1-4.968 11.1-11.074s-4.98-11.073-11.1-11.073m0 22.874c-6.523 0-11.829-5.294-11.829-11.8 0-6.508 5.306-11.801 11.829-11.801 6.522 0 11.828 5.293 11.828 11.8 0 6.507-5.306 11.8-11.828 11.8" fill="#182642" mask="url(#c)"/><path d="M67.125 81.35l-.022-.029a6.135 6.135 0 0 1-.83-1.623c-1.583-3.315-4.916-11.47-6.012-23.24-1.028-11.028-.092-25.23 6.085-41.602 0 0 3.979-10.904 11.72-13.994 0 0 .383-.159.862-.298-.72-.192-1.188-.201-1.188-.201-.808.011-1.981.5-1.981.5-7.742 3.089-11.72 13.993-11.72 13.993-6.177 16.372-7.113 30.574-6.086 41.602 1.097 11.77 4.43 19.925 6.011 23.24.197.585.479 1.13.832 1.623l.022.03a6.168 6.168 0 0 0 4.995 2.564h2.307a6.169 6.169 0 0 1-4.995-2.565" fill="#B3E5FC" mask="url(#c)"/><path d="M58.403 56.425c1.106 11.88 4.549 20.124 5.977 23.118a.33.33 0 0 1 .017.04c.182.543.445 1.056.782 1.528l.018.022a5.832 5.832 0 0 0 4.702 2.42h15.9c1.91 0 3.686-.898 4.751-2.402-.001 0 .105-.185.28-.52.11-.193.202-.373.28-.548 1.367-2.751 4.675-10.33 6.017-21.56 1.69-14.139-.275-28.787-5.84-43.539-.041-.11-4.026-10.767-11.516-13.784C78.652.75 77.828.727 77.82.727c-.715.01-1.823.467-1.834.472-7.503 2.994-11.48 13.674-11.519 13.782-5.282 14-7.322 27.943-6.064 41.444M85.8 84.28H69.9a6.56 6.56 0 0 1-5.29-2.715l-.02-.025a6.503 6.503 0 0 1-.877-1.704c-1.451-3.045-4.92-11.373-6.036-23.342-1.268-13.612.787-27.664 6.107-41.765.04-.11 1.03-2.794 2.99-5.904C68.594 5.94 71.62 2.158 75.71.525 75.756.506 76.953.013 77.82 0c.05 0 .97.021 2.223.526 4.084 1.645 7.11 5.426 8.931 8.308 1.962 3.105 2.954 5.785 2.995 5.897 5.606 14.858 7.585 29.622 5.88 43.879-1.355 11.341-4.704 19.01-6.08 21.782-.081.182-.184.386-.301.588-.19.364-.304.56-.304.56-1.22 1.726-3.219 2.74-5.365 2.74" fill="#182642" mask="url(#c)"/><path d="M67.288 45.569h-1.442a.364.364 0 1 1 0-.727h1.442a.364.364 0 1 1 0 .727M64.697 45.569h-.015a.364.364 0 1 1 0-.727.37.37 0 0 1 .372.364.357.357 0 0 1-.357.363M90.606 40.844H89.53a.364.364 0 1 1 0-.727h1.077a.364.364 0 1 1 0 .727M94.25 40.844h-2.17a.364.364 0 1 1 0-.727h2.17a.364.364 0 1 1 0 .727" fill="#182642" mask="url(#c)"/><path d="M92.838 70.726c.387-1.023.715-1.942.925-2.622" fill="#FFD732" mask="url(#c)"/><path d="M92.838 71.09a.364.364 0 0 1-.341-.492c.418-1.105.727-1.98.918-2.6a.363.363 0 1 1 .697.214c-.196.634-.51 1.524-.933 2.643a.364.364 0 0 1-.341.235" fill="#182642" mask="url(#c)"/><path d="M89.254 79.553s1.565-3.67 2.899-7.055" fill="#FFD732" mask="url(#c)"/><path d="M89.254 79.917a.363.363 0 0 1-.335-.506c.015-.036 1.578-3.704 2.895-7.046a.365.365 0 0 1 .678.266c-1.32 3.352-2.887 7.028-2.903 7.065a.365.365 0 0 1-.335.22M91.79 42.57h-2.642a.364.364 0 1 1 0-.727h2.642a.364.364 0 1 1 0 .727M97.68 79.224a.276.276 0 0 1-.197-.083l-4.008-4.064a.277.277 0 0 1 .395-.387l4.008 4.064a.276.276 0 0 1-.198.47" fill="#182642" mask="url(#c)"/><path d="M80.862 74.556c0 10.187-1.484 18.446-3.316 18.446-1.831 0-3.316-8.259-3.316-18.446 0-10.188 1.485-18.446 3.316-18.446 1.832 0 3.316 8.258 3.316 18.446" fill="#FFD732" mask="url(#c)"/><path d="M77.546 56.473c-1.232 0-2.952 6.88-2.952 18.083s1.72 18.082 2.952 18.082c1.233 0 2.952-6.88 2.952-18.082 0-11.204-1.72-18.083-2.952-18.083m0 36.892c-2.7 0-3.68-11.248-3.68-18.81 0-7.56.98-18.809 3.68-18.809s3.681 11.249 3.681 18.81c0 7.56-.98 18.81-3.68 18.81" fill="#182642" mask="url(#c)"/><path d="M78.708 33.496c2.173 0 4.14.88 5.563 2.3.24.24.458.5.666.77a7.87 7.87 0 0 0-1.436-1.98 7.848 7.848 0 0 0-5.564-2.302c-4.343 0-7.863 3.512-7.863 7.845 0 1.798.609 3.45 1.63 4.77a7.761 7.761 0 0 1-.86-3.558c0-4.333 3.52-7.845 7.864-7.845" fill="#B3E5FC" mask="url(#c)"/><path d="M77.79 32.422c-4.236 0-7.682 3.438-7.682 7.664a7.687 7.687 0 0 0 3.144 6.173 7.63 7.63 0 0 0 4.537 1.49c4.236 0 7.682-3.438 7.682-7.663a7.604 7.604 0 0 0-2.247-5.416 7.638 7.638 0 0 0-5.435-2.248m0 15.69a7.99 7.99 0 0 1-4.752-1.56 8.052 8.052 0 0 1-3.293-6.466c0-4.426 3.609-8.027 8.045-8.027 2.151 0 4.173.836 5.693 2.354a7.963 7.963 0 0 1 2.353 5.673c0 4.426-3.61 8.027-8.046 8.027" fill="#182642" mask="url(#c)"/><path d="M77.83 35.904a.705.705 0 1 1-1.41-.002.705.705 0 0 1 1.41.002M83.523 44.014a.181.181 0 0 1-.149-.287c1.79-2.527.802-5.623.792-5.654a.182.182 0 0 1 .346-.113c.044.133 1.058 3.298-.84 5.977a.182.182 0 0 1-.15.077M138.947 75.5V97.17l-1.55-.836V74.162z" fill="#B3E5FC" mask="url(#c)"/><path d="M137.67 96.19c8.702 5.803 17.594 2.796 26.195-.113 8.628-2.918 17.545-5.933 26.37-.249V74.307c-8.7-5.803-17.593-2.796-26.194.113-8.628 2.917-17.545 5.932-26.37.249V96.19zm10.952 3.864c-3.791 0-7.593-.933-11.378-3.493a.273.273 0 0 1-.12-.226V74.162a.274.274 0 0 1 .426-.226c8.74 5.91 17.675 2.89 26.315-.032 8.767-2.965 17.832-6.03 26.797.032.075.05.12.135.12.226v22.173a.273.273 0 0 1-.427.226c-8.74-5.911-17.674-2.89-26.314.032-5.065 1.713-10.232 3.46-15.42 3.46z" fill="#182642" mask="url(#c)"/><path d="M176.814 86.78h-.006l-.27-.004a.273.273 0 0 1-.27-.275c0-.15.117-.283.275-.27.093 0 .186.002.277.004a.273.273 0 0 1-.006.545M164.91 88.511a.273.273 0 0 1-.067-.537c2.867-.728 7.055-1.62 10.715-1.733.15 0 .277.113.282.264a.273.273 0 0 1-.265.281c-3.611.111-7.756.995-10.598 1.717a.29.29 0 0 1-.067.008M161.915 89.341a.273.273 0 0 1-.082-.533c.007-.002.677-.21 1.755-.504a.273.273 0 0 1 .144.526c-1.068.29-1.73.497-1.736.5a.278.278 0 0 1-.081.011" fill="#182642" mask="url(#c)"/><path d="M78.103 2.436S73.5 9.56 74.23 19.264h-4.156s2.974-15.192 8.03-16.828" fill="#B3E5FC" mask="url(#c)"/><path d="M91.276 32.648h-5.097a.364.364 0 1 1 0-.727h5.097a.364.364 0 1 1 0 .727" fill="#182642" mask="url(#c)"/><path d="M77.505 91.395a.364.364 0 0 1-.364-.363V57.963a.364.364 0 0 1 .729 0v33.069a.364.364 0 0 1-.365.363" fill="#FDB816" mask="url(#c)"/><path d="M78.68 84.233c-.117 0-.212-.081-.212-.182V62.993c0-.1.095-.182.213-.182.117 0 .213.081.213.182V84.05c0 .1-.096.182-.213.182M76.278 84.233c-.118 0-.214-.081-.214-.182V62.993c0-.1.096-.182.214-.182.117 0 .213.081.213.182V84.05c0 .1-.096.182-.213.182" fill="#FFF59D" mask="url(#c)"/></g></svg>