<svg width="25" height="25" xmlns="http://www.w3.org/2000/svg" xmlns:xlink="http://www.w3.org/1999/xlink"><defs><path id="a" d="M0 .3h24.695v24.237H0z"/></defs><g fill="none" fill-rule="evenodd"><path d="M11.08 17.882a.716.716 0 0 1-.501-.203l-4.224-4.146a.685.685 0 0 1 0-.982.717.717 0 0 1 1 0l3.674 3.605 6.544-7.777a.715.715 0 0 1 .996-.093.685.685 0 0 1 .094.977l-7.038 8.367a.709.709 0 0 1-.546.252" fill="#009B74"/><g transform="translate(0 .164)"><mask id="b" fill="#fff"><use xlink:href="#a"/></mask><path d="M23.769 7.804a.715.715 0 0 0-.924-.377.691.691 0 0 0-.385.906 10.5 10.5 0 0 1 .82 4.085c0 5.916-4.904 10.73-10.932 10.73-6.029 0-10.933-4.814-10.933-10.73S6.32 1.688 12.348 1.688c2.796 0 5.456 1.034 7.49 2.915a.72.72 0 0 0 1-.03.688.688 0 0 0-.03-.983 12.424 12.424 0 0 0-8.46-3.291C5.539.299 0 5.735 0 12.418c0 6.682 5.54 12.12 12.348 12.12 6.808 0 12.347-5.438 12.347-12.12 0-1.597-.311-3.149-.926-4.614" fill="#009B74" mask="url(#b)"/></g><path d="M21.903 6.844c.39 0 .708-.312.708-.694a.702.702 0 0 0-.708-.695.702.702 0 0 0-.707.695c0 .382.317.694.707.694" fill="#009B74"/></g></svg>