<svg xmlns="http://www.w3.org/2000/svg" viewBox="0 0 64 64"><path d="M33 0C15.3 0 1 14.3 1 32s14.3 32 32 32 32-14.3 32-32S50.7 0 33 0zm13 26.2v.8c0 8.4-6.3 18-17.9 18-3.6 0-6.9-1-9.7-2.8.5.1 1 .1 1.5.1 3 0 5.7-1 7.8-2.7-2.8-.1-5.1-1.9-5.9-4.4.4.1.8.1 1.2.1.6 0 1.1-.1 1.7-.2-2.9-.6-5.1-3.1-5.1-6.2v-.1c.8.5 1.8.8 2.9.8-1.7-1.1-2.8-3.1-2.8-5.2 0-1.2.3-2.2.9-3.2 3.1 3.8 7.7 6.3 13 6.6-.1-.5-.2-.9-.2-1.4 0-3.5 2.8-6.3 6.3-6.3 1.8 0 3.4.8 4.6 2 1.4-.3 2.8-.8 4-1.5-.5 1.5-1.5 2.7-2.8 3.5 1.3-.2 2.5-.5 3.6-1-.8 1.1-1.9 2.2-3.1 3.1z" fill="#55acee"/></svg>